<?xml version="1.0" encoding="UTF-8" standalone="no"?>
<svg width="161px" height="77px" viewBox="0 0 161 77" version="1.1" xmlns="http://www.w3.org/2000/svg" xmlns:xlink="http://www.w3.org/1999/xlink">
    <!-- Generator: Sketch 41.1 (35376) - http://www.bohemiancoding.com/sketch -->
    <title>LSP</title>
    <desc>Created with Sketch.</desc>
    <defs></defs>
    <g id="Page-1" stroke="none" stroke-width="1" fill="none" fill-rule="evenodd">
        <g id="LSP" fill="#FFFFFF">
            <polygon id="Shape" points="83.548 42.979 68.561 42.979 68.561 15.171 59.576 15.171 59.576 50.499 83.548 50.499"></polygon>
            <path d="M101.818,24.608 C101.818,22.892 103.383,22.034 105.705,22.034 C108.582,22.034 113.274,23.548 117.01,25.719 L120.392,18.703 C116.758,16.331 111.56,14.766 106.462,14.766 C97.983,14.766 92.381,18.904 92.381,25.414 C92.381,37.931 111.056,34.195 111.056,40.454 C111.056,42.474 109.287,43.533 106.462,43.533 C102.779,43.533 97.327,41.414 93.693,38.234 L90.211,45.148 C94.399,48.58 100.457,50.801 106.36,50.801 C114.234,50.801 120.492,47.066 120.492,40.001 C120.492,27.232 101.818,30.716 101.818,24.608 Z" id="Shape"></path>
            <path d="M139.418,40.557 L145.827,40.557 C154.862,40.557 160.06,35.762 160.06,27.485 C160.06,19.612 154.862,15.171 145.827,15.171 L130.434,15.171 L130.434,50.499 L139.417,50.499 L139.417,40.557 L139.418,40.557 Z M139.418,22.236 L145.375,22.236 C149.311,22.236 151.582,24.104 151.582,27.788 C151.582,31.523 149.311,33.491 145.375,33.491 L139.418,33.491 L139.418,22.236 Z" id="Shape"></path>
            <polygon id="Shape" points="61.882 59 61.132 59 61.132 63.445 63.806 63.445 63.806 62.767 61.882 62.767"></polygon>
            <rect id="Rectangle-path" x="65.793" y="59" width="0.751" height="4.445"></rect>
            <path d="M70.996,59.648 C71.46,59.648 71.936,59.839 72.279,60.157 L72.706,59.605 C72.268,59.223 71.631,58.981 70.996,58.981 C69.65,58.981 68.616,59.954 68.616,61.223 C68.616,62.494 69.637,63.478 70.952,63.478 C71.562,63.478 72.228,63.242 72.68,62.899 L72.68,61.262 L72.026,61.262 L72.026,62.5 C71.709,62.689 71.334,62.805 71.003,62.805 C70.097,62.805 69.379,62.112 69.379,61.222 C69.378,60.339 70.089,59.648 70.996,59.648 Z" id="Shape"></path>
            <polygon id="Shape" points="78.119 60.931 75.761 60.931 75.761 59 75.013 59 75.013 63.445 75.761 63.445 75.761 61.605 78.119 61.605 78.119 63.445 78.867 63.445 78.867 59 78.119 59"></polygon>
            <polygon id="Shape" points="80.779 59.673 82.184 59.673 82.184 63.445 82.933 63.445 82.933 59.673 84.343 59.673 84.343 59 80.779 59"></polygon>
            <path d="M89.844,60.137 C89.844,59.839 90.13,59.673 90.569,59.673 C90.906,59.673 91.389,59.794 91.871,60.087 L92.183,59.426 C91.77,59.152 91.204,58.968 90.626,58.968 C89.66,58.968 89.007,59.444 89.007,60.207 C89.007,61.789 91.407,61.236 91.407,62.227 C91.407,62.571 91.096,62.768 90.576,62.768 C90.098,62.768 89.527,62.538 89.07,62.119 L88.746,62.768 C89.203,63.186 89.863,63.472 90.562,63.472 C91.541,63.472 92.24,62.983 92.24,62.19 C92.244,60.587 89.844,61.108 89.844,60.137 Z" id="Shape"></path>
            <path d="M96.374,58.98 C95.047,58.98 94.018,59.945 94.018,61.222 C94.018,62.493 95.047,63.477 96.374,63.477 C97.702,63.477 98.731,62.493 98.731,61.222 C98.731,59.954 97.702,58.98 96.374,58.98 Z M96.381,62.805 C95.51,62.805 94.779,62.107 94.779,61.222 C94.779,60.339 95.504,59.654 96.381,59.654 C97.251,59.654 97.962,60.339 97.962,61.222 C97.962,62.107 97.251,62.805 96.381,62.805 Z" id="Shape"></path>
            <path d="M103.831,61.605 C103.831,62.359 103.381,62.805 102.657,62.805 C101.926,62.805 101.463,62.355 101.463,61.605 L101.463,59 L100.713,59 L100.713,61.604 C100.713,62.766 101.45,63.477 102.651,63.477 C103.852,63.477 104.583,62.766 104.583,61.604 L104.583,59 L103.832,59 L103.832,61.605 L103.831,61.605 Z" id="Shape"></path>
            <path d="M110.521,60.517 C110.521,59.552 109.868,59 108.73,59 L106.927,59 L106.927,63.445 L107.676,63.445 L107.676,62.107 L108.73,62.107 C108.799,62.107 108.87,62.107 108.933,62.1 L109.746,63.446 L110.597,63.446 L109.6,61.96 C110.189,61.73 110.521,61.23 110.521,60.517 Z M108.729,61.432 L107.675,61.432 L107.675,59.673 L108.729,59.673 C109.416,59.673 109.809,59.954 109.809,60.537 C109.81,61.141 109.416,61.432 108.729,61.432 Z" id="Shape"></path>
            <path d="M114.771,62.779 C113.88,62.779 113.182,62.087 113.182,61.211 C113.182,60.335 113.88,59.649 114.771,59.649 C115.22,59.649 115.685,59.864 116.009,60.213 L116.447,59.669 C116.016,59.242 115.386,58.981 114.758,58.981 C113.444,58.981 112.421,59.954 112.421,61.216 C112.421,62.494 113.431,63.478 114.733,63.478 C115.362,63.478 116.003,63.193 116.456,62.747 L116.011,62.251 C115.673,62.575 115.216,62.779 114.771,62.779 Z" id="Shape"></path>
            <polygon id="Shape" points="119.236 61.547 121.41 61.547 121.41 60.873 119.236 60.873 119.236 59.673 121.662 59.673 121.662 59 118.487 59 118.487 63.445 121.74 63.445 121.74 62.773 119.236 62.773"></polygon>
            <path d="M128.606,59 L126.834,59 L126.834,63.445 L127.584,63.445 L127.584,62.107 L128.606,62.107 C129.724,62.107 130.366,61.522 130.366,60.517 C130.366,59.552 129.725,59 128.606,59 Z M128.574,61.432 L127.584,61.432 L127.584,59.673 L128.574,59.673 C129.261,59.673 129.648,59.954 129.648,60.537 C129.648,61.141 129.261,61.432 128.574,61.432 Z" id="Shape"></path>
            <polygon id="Shape" points="133.129 61.547 135.303 61.547 135.303 60.873 133.129 60.873 133.129 59.673 135.557 59.673 135.557 59 132.38 59 132.38 63.445 135.632 63.445 135.632 62.773 133.129 62.773"></polygon>
            <path d="M139.807,58.98 C138.479,58.98 137.45,59.945 137.45,61.222 C137.45,62.493 138.479,63.477 139.807,63.477 C141.133,63.477 142.162,62.493 142.162,61.222 C142.162,59.954 141.133,58.98 139.807,58.98 Z M139.812,62.805 C138.941,62.805 138.211,62.107 138.211,61.222 C138.211,60.339 138.935,59.654 139.812,59.654 C140.681,59.654 141.394,60.339 141.394,61.222 C141.395,62.107 140.682,62.805 139.812,62.805 Z" id="Shape"></path>
            <path d="M146.006,59 L144.234,59 L144.234,63.445 L144.983,63.445 L144.983,62.107 L146.006,62.107 C147.124,62.107 147.766,61.522 147.766,60.517 C147.766,59.552 147.124,59 146.006,59 Z M145.975,61.432 L144.983,61.432 L144.983,59.673 L145.975,59.673 C146.66,59.673 147.047,59.954 147.047,60.537 C147.047,61.141 146.659,61.432 145.975,61.432 Z" id="Shape"></path>
            <polygon id="Shape" points="150.528 59 149.778 59 149.778 63.445 152.453 63.445 152.453 62.767 150.528 62.767"></polygon>
            <polygon id="Shape" points="155.192 61.547 157.363 61.547 157.363 60.873 155.192 60.873 155.192 59.673 157.618 59.673 157.618 59 154.441 59 154.441 63.445 157.694 63.445 157.694 62.773 155.192 62.773"></polygon>
            <path d="M40.298,6.385 C36.504,2.884 32.039,0.848 26.908,0.206 C22.044,-0.401 17.366,0.309 13.1,2.639 C3.991,7.61 -0.452,15.405 0.036,25.791 C0.313,31.735 2.822,36.809 6.99,41.05 C9.429,43.531 10.759,46.469 10.793,49.975 C10.807,51.443 11.213,52.807 12.107,53.979 C13.48,55.779 15.356,56.613 17.592,56.621 C21.958,56.643 26.323,56.629 30.689,56.631 C30.975,56.631 31.261,56.632 31.547,56.636 C31.865,56.64 32.117,56.757 32.157,57.102 C32.206,57.516 31.922,57.678 31.584,57.737 C31.34,57.779 31.085,57.766 30.834,57.766 C29.761,57.769 28.688,57.768 27.614,57.768 C24,57.769 20.384,57.824 16.772,57.751 C14.754,57.709 13.64,59.892 14.137,61.293 C14.593,62.571 15.463,63.275 16.967,63.28 C20.51,63.29 24.052,63.284 27.595,63.285 C27.881,63.285 28.167,63.291 28.453,63.296 C28.833,63.305 29.142,63.542 29.086,63.866 C29.05,64.08 28.677,64.302 28.41,64.398 C28.155,64.487 27.844,64.423 27.558,64.423 C25.482,64.427 23.406,64.388 21.331,64.449 C19.729,64.498 18.696,65.589 18.664,67.098 C18.63,68.673 19.552,69.741 21.121,69.938 C22.528,70.116 22.982,70.6 23.018,72.029 C23.043,72.995 23.011,73.961 23.031,74.927 C23.046,75.676 23.476,76.15 24.091,76.153 C24.707,76.156 25.095,75.701 25.104,74.916 C25.118,73.734 25.114,72.554 25.106,71.373 C25.093,69.682 23.962,68.271 22.323,67.896 C22.01,67.826 21.678,67.811 21.385,67.696 C21.181,67.62 20.859,67.372 20.883,67.278 C20.946,67.041 21.133,66.752 21.348,66.66 C21.625,66.54 21.979,66.575 22.298,66.573 C24.409,66.569 26.522,66.524 28.631,66.588 C30.097,66.633 31.126,65.48 31.307,64.299 C31.528,62.851 30.697,61.575 29.274,61.212 C28.833,61.101 28.36,61.063 27.902,61.063 C24.466,61.052 21.031,61.059 17.595,61.058 C17.309,61.058 17.002,61.101 16.744,61.011 C16.553,60.941 16.307,60.687 16.305,60.513 C16.303,60.333 16.534,60.052 16.72,59.988 C17.012,59.888 17.355,59.917 17.674,59.917 C21.431,59.915 25.189,59.917 28.946,59.917 C29.877,59.917 30.806,59.937 31.737,59.908 C32.776,59.876 33.636,59.457 34.07,58.476 C35.029,56.304 33.645,54.336 31.6,54.387 C29.24,54.445 26.876,54.401 24.515,54.401 C22.154,54.401 19.791,54.429 17.43,54.393 C14.877,54.353 13.065,52.498 13.012,49.968 C12.997,49.363 12.936,48.758 12.866,48.157 C12.509,45.157 11.279,42.542 9.319,40.263 C8.784,39.64 8.172,39.083 7.636,38.459 C3.554,33.701 1.644,28.228 2.282,21.94 C2.87,16.209 5.322,11.414 9.662,7.633 C14.626,3.311 20.432,1.547 26.941,2.41 C31.793,3.053 36.007,5.139 39.455,8.668 C44.164,13.486 46.351,19.232 45.793,25.978 C45.364,31.165 43.308,35.612 39.675,39.332 C36.891,42.184 35.277,45.54 35.201,49.574 C35.18,50.666 34.881,51.48 33.774,51.484 L27.353,51.496 C26.88,51.354 26.766,51.092 26.72,50.986 C26.666,50.859 26.631,50.717 26.619,50.581 C26.531,49.566 26.45,48.549 26.371,47.532 C26.322,46.934 26.273,46.334 26.225,45.735 C26.156,44.899 26.086,44.062 26.015,43.224 C25.949,42.413 25.88,41.603 25.815,40.792 C25.797,40.402 25.618,37.443 24.079,37.395 C22.913,37.359 22.39,38.723 22.087,42.604 C22.001,43.644 21.918,44.687 21.837,45.729 L21.644,48.147 C21.582,48.918 21.521,49.689 21.452,50.461 C21.436,50.644 21.41,50.79 21.369,50.905 C21.196,51.417 20.649,51.722 20.123,51.604 C19.576,51.481 19.214,50.988 19.261,50.431 C19.344,49.431 19.425,48.43 19.506,47.428 C19.564,46.701 19.622,45.975 19.682,45.25 C19.755,44.352 19.83,43.454 19.906,42.558 C19.995,41.508 20.082,40.458 20.168,39.409 C20.297,37.819 20.435,36.125 20.565,34.406 C20.599,33.926 20.616,33.412 20.618,32.834 C20.62,31.847 20.62,30.859 20.62,29.873 C20.62,28.44 20.62,27.006 20.627,25.573 C20.631,24.944 20.356,24.506 19.79,24.233 C16.388,22.589 14.218,19.976 13.156,16.242 C12.885,15.288 12.718,14.326 12.658,13.381 C12.645,13.186 12.673,13.086 12.681,13.059 C12.744,12.868 12.939,12.821 13.088,12.838 C13.286,12.861 13.415,12.998 13.434,13.202 C13.535,14.333 13.718,15.325 13.995,16.235 C14.974,19.459 16.931,21.857 19.812,23.362 C19.84,23.377 19.869,23.39 19.898,23.404 C19.911,23.41 19.923,23.416 19.937,23.423 C20.527,23.74 21.154,23.889 21.843,23.878 C23.198,23.854 24.58,23.861 25.919,23.869 L26.545,23.872 C26.933,23.867 27.296,23.798 27.651,23.64 C30.402,22.415 32.407,20.354 33.611,17.515 C34.14,16.268 34.474,14.852 34.632,13.185 C34.649,13.015 34.695,12.921 34.921,12.843 C35.061,12.794 35.228,12.847 35.332,12.975 C35.424,13.085 35.428,13.165 35.42,13.236 C35.4,13.389 35.381,13.542 35.362,13.695 C35.295,14.25 35.231,14.774 35.128,15.288 C34.647,17.679 33.623,19.745 32.088,21.428 C31.017,22.603 29.739,23.546 28.292,24.23 C28.216,24.266 28.141,24.305 28.057,24.345 L27.447,24.647 L27.447,25.557 C27.447,26.308 27.447,27.06 27.444,27.812 C27.442,29.721 27.441,31.695 27.455,33.637 C27.46,34.258 27.516,34.871 27.57,35.462 C27.588,35.672 27.607,35.88 27.625,36.089 C27.681,36.801 28.019,40.286 28.346,43.657 C28.653,46.834 28.945,49.835 28.998,50.484 L30.731,50.342 C30.678,49.68 30.386,46.673 30.077,43.49 C29.752,40.126 29.415,36.648 29.359,35.95 C29.341,35.735 29.321,35.52 29.303,35.304 C29.249,34.722 29.199,34.172 29.195,33.623 C29.18,31.688 29.182,29.719 29.184,27.813 C29.186,27.119 29.186,26.425 29.186,25.73 C30.779,24.955 32.187,23.902 33.374,22.599 C35.126,20.679 36.289,18.335 36.834,15.631 C36.951,15.05 37.022,14.468 37.09,13.904 C37.109,13.754 37.127,13.605 37.146,13.455 C37.219,12.876 37.057,12.326 36.671,11.863 C36.107,11.179 35.173,10.911 34.351,11.196 C33.512,11.487 32.983,12.151 32.899,13.018 C32.756,14.525 32.472,15.738 32.008,16.833 C30.968,19.287 29.31,20.993 26.941,22.048 C26.814,22.104 26.691,22.123 26.552,22.129 L25.927,22.126 C24.579,22.118 23.187,22.111 21.813,22.135 C21.42,22.139 21.084,22.063 20.758,21.887 C20.725,21.869 20.69,21.852 20.655,21.836 L20.618,21.816 C18.129,20.517 16.507,18.524 15.657,15.726 C15.417,14.932 15.256,14.055 15.166,13.044 C15.076,12.025 14.307,11.229 13.295,11.107 C12.275,10.983 11.345,11.559 11.027,12.507 C10.932,12.794 10.895,13.124 10.919,13.487 C10.986,14.555 11.175,15.64 11.481,16.714 C12.653,20.84 15.144,23.87 18.884,25.724 C18.879,27.105 18.879,28.488 18.879,29.87 C18.879,30.856 18.879,31.843 18.877,32.828 C18.875,33.364 18.858,33.836 18.826,34.273 C18.698,35.986 18.561,37.679 18.43,39.264 C18.344,40.313 18.257,41.361 18.17,42.409 C18.094,43.307 18.019,44.206 17.945,45.105 C17.885,45.832 17.826,46.559 17.768,47.287 C17.688,48.285 17.608,49.284 17.525,50.283 C17.404,51.714 18.334,52.983 19.736,53.299 C19.937,53.344 20.14,53.366 20.34,53.366 C21.519,53.366 22.627,52.61 23.016,51.461 C23.1,51.213 23.155,50.935 23.184,50.611 C23.253,49.835 23.315,49.06 23.376,48.283 L23.568,45.864 C23.651,44.822 23.733,43.782 23.818,42.739 C23.891,41.801 23.976,41.091 24.059,40.555 C24.068,40.655 24.071,40.757 24.073,40.857 L24.077,40.916 C24.144,41.733 24.213,42.55 24.28,43.367 C24.35,44.203 24.421,45.038 24.488,45.875 C24.538,46.472 24.586,47.07 24.633,47.669 C24.715,48.69 24.794,49.708 24.883,50.728 C24.909,51.048 24.992,51.374 25.121,51.672 C25.444,52.427 26.225,53.326 28.099,53.326 L28.099,53.227 L33.788,53.222 C36.075,53.218 37.301,51.972 37.35,49.716 C37.389,47.982 37.837,46.346 38.521,44.75 C39.272,42.993 40.592,41.686 41.826,40.302 C46.775,34.746 48.783,28.258 47.857,20.894 C47.136,15.142 44.557,10.314 40.298,6.385 Z" id="Shape"></path>
            <path d="M24.041,20.958 L24.055,20.958 C26.491,20.951 28.467,18.957 28.463,16.512 C28.456,14.076 26.469,12.095 24.025,12.095 C21.589,12.098 19.6,14.084 19.594,16.52 C19.59,17.705 20.046,18.818 20.879,19.653 C21.719,20.494 22.842,20.958 24.041,20.958 Z M24.033,13.835 C25.512,13.835 26.717,15.038 26.721,16.516 C26.725,18.027 25.551,19.213 24.049,19.218 L24.041,20.088 L24.041,19.218 C23.308,19.218 22.623,18.936 22.112,18.424 C21.609,17.919 21.332,17.244 21.333,16.525 C21.338,15.043 22.547,13.837 24.033,13.835 Z" id="Shape"></path>
        </g>
    </g>
</svg>